<svg xmlns="http://www.w3.org/2000/svg" viewBox="0 0 512 512" role="img" aria-label="Offline Travel Packs icon">
  <defs>
    <linearGradient id="bg" x1="0" y1="0" x2="1" y2="1">
      <stop offset="0%" stop-color="#0f3e45"/>
      <stop offset="100%" stop-color="#d36836"/>
    </linearGradient>
  </defs>
  <rect width="512" height="512" rx="110" fill="url(#bg)"/>
  <circle cx="256" cy="210" r="98" fill="#f2ede4" opacity="0.94"/>
  <path d="M256 118c-57 0-103 46-103 103 0 71 89 164 97 173 3 4 9 4 12 0 8-9 97-102 97-173 0-57-46-103-103-103zm0 154c-28 0-51-23-51-51s23-51 51-51 51 23 51 51-23 51-51 51z" fill="#1b5b63"/>
  <rect x="122" y="360" width="268" height="28" rx="14" fill="#f2ede4" opacity="0.86"/>
</svg>
